<svg id="Capa_1" data-name="Capa 1" xmlns="http://www.w3.org/2000/svg" xmlns:xlink="http://www.w3.org/1999/xlink" viewBox="0 0 61.77 61.46"><defs><style>.cls-1,.cls-2{fill:none;}.cls-1{clip-rule:evenodd;}.cls-3{clip-path:url(#clip-path);}.cls-4{isolation:isolate;}.cls-5{clip-path:url(#clip-path-2);}.cls-6{clip-path:url(#clip-path-3);}.cls-7{fill:#d8a03a;}</style><clipPath id="clip-path" transform="translate(9 9.04)"><path class="cls-1" d="M16.07,18.06h2.47V15.22c0-2,1-5.21,5.24-5.21h3.85v4.26H24.84a1.05,1.05,0,0,0-1.1,1.2v2.58h4l-0.45,4.39h-3.5V34.87H18.54V22.45H16.07V18.06ZM0.34,21.7A21.54,21.54,0,1,0,21.88.28,21.51,21.51,0,0,0,.34,21.7Z"/></clipPath><clipPath id="clip-path-2" transform="translate(9 9.04)"><rect class="cls-2" y="-0.04" width="44" height="44"/></clipPath><clipPath id="clip-path-3" transform="translate(9 9.04)"><rect class="cls-2" x="-4" y="-4.04" width="51.77" height="51.46"/></clipPath></defs><title>face</title><g class="cls-3"><g class="cls-4"><g class="cls-5"><g class="cls-6"><g class="cls-5"><rect class="cls-7" width="61.77" height="61.46"/></g></g></g></g></g></svg>