<svg id="Capa_1" data-name="Capa 1" xmlns="http://www.w3.org/2000/svg" xmlns:xlink="http://www.w3.org/1999/xlink" viewBox="0 0 1195.41 2085.76"><defs><style>.cls-1,.cls-2,.cls-3{fill:none;}.cls-1{clip-rule:evenodd;}.cls-3{fill-rule:evenodd;}.cls-4{clip-path:url(#clip-path);}.cls-5{isolation:isolate;}.cls-6{clip-path:url(#clip-path-2);}.cls-7{fill:#d8a03a;}.cls-8{clip-path:url(#clip-path-4);}.cls-9{fill:#f6f5f7;}.cls-10{clip-path:url(#clip-path-6);}.cls-11{clip-path:url(#clip-path-8);}.cls-12{clip-path:url(#clip-path-9);}.cls-13{clip-path:url(#clip-path-10);}.cls-14{clip-path:url(#clip-path-13);}.cls-15{fill:#906f23;}.cls-16{clip-path:url(#clip-path-15);}.cls-17{clip-path:url(#clip-path-16);}.cls-18{clip-path:url(#clip-path-17);}.cls-19{clip-path:url(#clip-path-20);}.cls-20{clip-path:url(#clip-path-22);}.cls-21{clip-path:url(#clip-path-23);}.cls-22{clip-path:url(#clip-path-27);}</style><clipPath id="clip-path" transform="translate(516.11 1919.67)"><path class="cls-1" d="M18.41,19.24a4.26,4.26,0,0,0-.81,2.5A4.31,4.31,0,1,0,18.41,19.24Z"/></clipPath><clipPath id="clip-path-2" transform="translate(516.11 1919.67)"><rect class="cls-2" x="17.53" y="16.76" width="9" height="10"/></clipPath><clipPath id="clip-path-4" transform="translate(516.11 1919.67)"><rect class="cls-2" x="-511.11" y="-1914.67" width="1185.41" height="2075.76"/></clipPath><clipPath id="clip-path-6" transform="translate(516.11 1919.67)"><rect class="cls-2" x="13.25" y="13.14" width="17.3" height="17.2"/></clipPath><clipPath id="clip-path-8" transform="translate(516.11 1919.67)"><polygon class="cls-1" points="31.32 16.49 31.32 12.9 31.32 12.37 30.78 12.37 27.17 12.38 27.18 16.51 31.32 16.49"/></clipPath><clipPath id="clip-path-9" transform="translate(516.11 1919.67)"><polygon class="cls-1" points="30.78 12.37 27.17 12.38 27.18 16.51 31.32 16.49 31.32 12.9 31.32 12.37 30.78 12.37"/></clipPath><clipPath id="clip-path-10" transform="translate(516.11 1919.67)"><rect class="cls-2" x="26.53" y="11.76" width="5" height="5"/></clipPath><clipPath id="clip-path-13" transform="translate(516.11 1919.67)"><rect class="cls-2" x="22.83" y="8.05" width="12.83" height="12.77"/></clipPath><clipPath id="clip-path-15" transform="translate(516.11 1919.67)"><path class="cls-1" d="M21.9,0.32A21.42,21.42,0,1,0,43.45,21.74,21.51,21.51,0,0,0,21.9.32ZM34.16,19.24v10a4.73,4.73,0,0,1-4.74,4.71h-15a4.73,4.73,0,0,1-4.74-4.71V14.27a4.73,4.73,0,0,1,4.74-4.71h15a4.73,4.73,0,0,1,4.74,4.71v5Z"/></clipPath><clipPath id="clip-path-16" transform="translate(516.11 1919.67)"><path class="cls-1" d="M9.65,29.21V14.27a4.73,4.73,0,0,1,4.73-4.71h15a4.73,4.73,0,0,1,4.74,4.71V29.21a4.73,4.73,0,0,1-4.74,4.71h-15A4.73,4.73,0,0,1,9.65,29.21ZM0.36,21.74A21.54,21.54,0,1,0,21.9.32,21.51,21.51,0,0,0,.36,21.74Z"/></clipPath><clipPath id="clip-path-17" transform="translate(516.11 1919.67)"><rect class="cls-2" x="-0.47" y="-0.24" width="44" height="44"/></clipPath><clipPath id="clip-path-20" transform="translate(516.11 1919.67)"><rect class="cls-2" x="-3.98" y="-3.99" width="51.77" height="51.46"/></clipPath><clipPath id="clip-path-22" transform="translate(516.11 1919.67)"><path class="cls-1" d="M28.11,19.24a6.54,6.54,0,0,1,.5,2.5,6.7,6.7,0,0,1-13.4,0,6.59,6.59,0,0,1,.49-2.5H12v10a2.34,2.34,0,0,0,2.35,2.33h15a2.34,2.34,0,0,0,2.35-2.33v-10H28.11Z"/></clipPath><clipPath id="clip-path-23" transform="translate(516.11 1919.67)"><rect class="cls-2" x="11.53" y="18.76" width="21" height="13"/></clipPath><clipPath id="clip-path-27" transform="translate(516.11 1919.67)"><rect class="cls-2" x="7.7" y="14.93" width="28.41" height="20.93"/></clipPath></defs><title>insta</title><g class="cls-4"><g class="cls-5"><g class="cls-6"><g class="cls-6"><rect class="cls-7" x="528.7" y="1932.12" width="18.63" height="18.57"/></g><g class="cls-8"><g class="cls-6"><rect class="cls-9" width="1195.41" height="2085.76"/></g></g><g class="cls-10"><g class="cls-6"><rect class="cls-7" x="524.36" y="1927.81" width="27.3" height="27.2"/></g></g></g></g></g><g class="cls-11"><rect class="cls-9" x="538.27" y="1927.03" width="14.15" height="14.14"/></g><g class="cls-12"><g class="cls-5"><g class="cls-13"><g class="cls-8"><g class="cls-13"><rect class="cls-9" width="1195.41" height="2085.76"/></g></g><g class="cls-14"><g class="cls-13"><rect class="cls-15" x="533.94" y="1922.72" width="22.83" height="22.77"/></g></g></g></g></g><g class="cls-16"><rect class="cls-9" x="511.47" y="1914.99" width="53.09" height="52.84"/></g><g class="cls-17"><g class="cls-5"><g class="cls-18"><g class="cls-8"><g class="cls-18"><rect class="cls-9" width="1195.41" height="2085.76"/></g></g><g class="cls-19"><g class="cls-18"><rect class="cls-15" x="507.13" y="1910.67" width="61.77" height="61.46"/></g></g></g></g></g><g class="cls-20"><g class="cls-5"><g class="cls-21"><g class="cls-21"><rect class="cls-7" x="523.15" y="1933.91" width="29.73" height="22.31"/></g><g class="cls-8"><g class="cls-21"><rect class="cls-9" width="1195.41" height="2085.76"/></g></g><g class="cls-22"><g class="cls-21"><rect class="cls-7" x="518.81" y="1929.59" width="38.41" height="30.93"/></g></g></g></g></g><g class="cls-12"><g class="cls-5"><g class="cls-13"><g class="cls-14"><g class="cls-13"><rect class="cls-7" x="533.94" y="1922.72" width="22.83" height="22.77"/></g></g></g></g></g><g class="cls-17"><g class="cls-5"><g class="cls-18"><g class="cls-18"><rect class="cls-7" x="511.47" y="1914.99" width="53.09" height="52.84"/></g><g class="cls-8"><g class="cls-18"><rect class="cls-9" width="1195.41" height="2085.76"/></g></g><g class="cls-19"><g class="cls-18"><rect class="cls-7" x="507.13" y="1910.67" width="61.77" height="61.46"/></g></g></g></g></g></svg>