<svg id="Capa_1" data-name="Capa 1" xmlns="http://www.w3.org/2000/svg" xmlns:xlink="http://www.w3.org/1999/xlink" viewBox="0 0 61.77 61.46"><defs><style>.cls-1,.cls-2{fill:none;}.cls-1{clip-rule:evenodd;}.cls-3{clip-path:url(#clip-path);}.cls-4{isolation:isolate;}.cls-5{clip-path:url(#clip-path-2);}.cls-6{clip-path:url(#clip-path-3);}.cls-7{fill:#d8a03a;}</style><clipPath id="clip-path" transform="translate(9 9)"><path class="cls-1" d="M21.57,16.9a5,5,0,0,1,8.58-3.37,9.93,9.93,0,0,0,3.15-1.2,5,5,0,0,1-2.18,2.73A9.85,9.85,0,0,0,34,14.28a10,10,0,0,1-2.47,2.55c0,0.21,0,.43,0,0.64A14.12,14.12,0,0,1,9.8,29.28a10.1,10.1,0,0,0,1.18.07,10,10,0,0,0,6.16-2.11,5,5,0,0,1-4.63-3.42,5,5,0,0,0,.93.09,5,5,0,0,0,1.31-.17,4.94,4.94,0,0,1-4-4.83s0,0,0-.06a5,5,0,0,0,2.24.62,4.92,4.92,0,0,1-1.53-6.58A14.1,14.1,0,0,0,21.7,18,4.89,4.89,0,0,1,21.57,16.9ZM0.34,21.73A21.54,21.54,0,1,0,21.88.31,21.51,21.51,0,0,0,.34,21.73Z"/></clipPath><clipPath id="clip-path-2" transform="translate(9 9)"><rect class="cls-2" width="44" height="44"/></clipPath><clipPath id="clip-path-3" transform="translate(9 9)"><rect class="cls-2" x="-4" y="-4" width="51.77" height="51.46"/></clipPath></defs><title>twit</title><g class="cls-3"><g class="cls-4"><g class="cls-5"><g class="cls-6"><g class="cls-5"><rect class="cls-7" width="61.77" height="61.46"/></g></g></g></g></g></svg>